{"accessors" : [{"bufferView" : 0, "byteOffset" : 0, "componentType" : 5123, "count" : 11808, "type" : "SCALAR", "max" : [11807], "min" : [0]}, {"bufferView" : 1, "byteOffset" : 0, "componentType" : 5126, "count" : 11808, "type" : "VEC3", "max" : [147.2866668701172, -22.39842414855957, 634.3580322265625], "min" : [-43.432228088378906, -1479.14697265625, -634.35791015625], "name" : "POSITION"}, {"bufferView" : 1, "byteOffset" : 12, "componentType" : 5126, "count" : 11808, "type" : "VEC3", "max" : [1.0000044107437134, 0.9791716933250427, 1.0000044107437134], "min" : [-1.000002384185791, -1.0000044107437134, -1.0000044107437134], "name" : "NORMAL"}, {"bufferView" : 1, "byteOffset" : 24, "componentType" : 5126, "count" : 11808, "type" : "VEC2", "max" : [1.000000238418579, -0], "min" : [0, -1.0000001192092896], "name" : "TEXCOORD_0"}, {"bufferView" : 0, "byteOffset" : 23616, "componentType" : 5123, "count" : 44496, "type" : "SCALAR", "max" : [44495], "min" : [0]}, {"bufferView" : 2, "byteOffset" : 0, "componentType" : 5126, "count" : 44496, "type" : "VEC3", "max" : [335.8883361816406, -0.04781089350581169, 631.4703369140625], "min" : [-56.85337829589844, -22.46879005432129, -631.4702758789062], "name" : "POSITION"}, {"bufferView" : 2, "byteOffset" : 12, "componentType" : 5126, "count" : 44496, "type" : "VEC3", "max" : [0.9999977350234985, 1.0000044107437134, 1.0000044107437134], "min" : [-1.000002145767212, -1.0000044107437134, -1.0000044107437134], "name" : "NORMAL"}, {"bufferView" : 2, "byteOffset" : 24, "componentType" : 5126, "count" : 44496, "type" : "VEC2", "max" : [1.0000001192092896, -0], "min" : [0, -0.5927116870880127], "name" : "TEXCOORD_0"}], "asset" : {"generator" : "Aspose.3D 22.7", "version" : "2.0"}, "buffers" : [{"uri" : "data:application/octet-stream;base64,", "byteLength" : 1914348}], "bufferViews" : [{"buffer" : 0, "byteOffset" : 0, "byteLength" : 112608, "target" : 34963}, {"buffer" : 0, "byteOffset" : 112612, "byteLength" : 377856, "byteStride" : 32, "target" : 34962}, {"buffer" : 0, "byteOffset" : 490472, "byteLength" : 1423872, "byteStride" : 32, "target" : 34962}], "materials" : [{"name" : "Material.001", "pbrMetallicRoughness" : {"baseColorFactor" : [0.10575708001852036, 0.10879025608301163, 0.10062433779239655, 1], "metallicFactor" : 0, "roughnessFactor" : 0}, "emissiveFactor" : [0, 0, 0], "alphaMode" : "OPAQUE", "doubleSided" : false}, {"name" : "Material.004", "pbrMetallicRoughness" : {"baseColorFactor" : [0.10575708001852036, 0.10879025608301163, 0.10062433779239655, 1], "metallicFactor" : 0, "roughnessFactor" : 0}, "emissiveFactor" : [0, 0, 0], "alphaMode" : "OPAQUE", "doubleSided" : false}], "meshes" : [{"primitives" : [{"attributes" : {"POSITION" : 1, "NORMAL" : 2, "TEXCOORD_0" : 3}, "indices" : 0, "material" : 0, "mode" : 4}], "name" : "Mesh.001"}, {"primitives" : [{"attributes" : {"POSITION" : 5, "NORMAL" : 6, "TEXCOORD_0" : 7}, "indices" : 4, "material" : 1, "mode" : 4}], "name" : "Mesh.005"}], "nodes" : [{"matrix" : [1.0275021813035592E-08, -0.13609679043292958, 3.1889046009924933E-09, 0, 0.008290903267982215, 3.808927639170991E-09, 0.13584401823100573, 0, -0.13584401823100536, -1.0061672626961564E-08, 0.008290903267982477, 0, 2.7821197509765625, 174.85496520996094, 47.12200164794922, 1], "mesh" : 0, "name" : "Frame.001"}, {"matrix" : [1.0275021813035592E-08, -0.13609679043292958, 3.1889046009924933E-09, 0, 0.008290903267982215, 3.808927639170991E-09, 0.13584401823100573, 0, -0.13584401823100536, -1.0061672626961564E-08, 0.008290903267982477, 0, 2.7821197509765625, 174.85496520996094, 47.12200164794922, 1], "mesh" : 1, "name" : "Frame.004"}], "scene" : 0, "scenes" : [{"nodes" : [0, 1]}]}