<?xml version="1.0" encoding="UTF-8"?><svg id="Layer_1" xmlns="http://www.w3.org/2000/svg" viewBox="0 0 1855 781.8"><defs><style>.cls-1{fill:#206f86;}.cls-2{fill:#093945;}</style></defs><g><path class="cls-1" d="M300,771.8c-12.5,0-22.6-10.2-22.6-22.6v-57.7l-3.3-1.2c-36.1-12.8-69.2-32-98.5-56.9l-2.7-2.3-50,28.9c-3.4,2-7.3,3-11.3,3-8.1,0-15.6-4.3-19.6-11.3L13,515.2c-6.2-10.8-2.5-24.7,8.3-30.9l49.3-28.5-.7-3.5c-3.7-19.4-5.5-39.3-5.5-59s1.7-37.6,4.9-55.9l.6-3.5-48.7-28.1c-10.8-6.2-14.5-20.1-8.3-30.9L91.9,138.4c4-7,11.6-11.3,19.6-11.3s7.9,1.1,11.3,3l47.6,27.5,2.7-2.3c29.9-25.9,63.8-45.8,101-59l3.3-1.2V40.8c0-12.5,10.2-22.6,22.6-22.6h157.6c12.5,0,22.6,10.2,22.6,22.6v53.6l3.4,1.2c37.5,13.1,71.8,32.9,102,59l2.7,2.3,46.5-26.9c3.4-2,7.3-3,11.3-3,8.1,0,15.6,4.3,19.6,11.3l78.8,136.5c6.2,10.8,2.5,24.7-8.3,30.9l-47.1,27.2,.6,3.5c3.4,18.7,5.1,37.8,5.1,56.8s-1.9,40.3-5.7,59.9l-.7,3.5,47.7,27.6c10.8,6.2,14.5,20.1,8.3,30.9l-78.8,136.5c-4,7-11.6,11.3-19.6,11.3h0c-3.9,0-7.9-1.1-11.3-3l-49-28.3-2.7,2.3c-29.6,25.1-63.1,44.2-99.6,56.9l-3.4,1.2v57.1c0,12.5-10.2,22.6-22.6,22.6h-157.6ZM379.7,236.9c-86.2,0-156.3,70.1-156.3,156.3s70.1,156.3,156.3,156.3,156.3-70.1,156.3-156.3-70.1-156.3-156.3-156.3Z"/><path class="cls-2" d="M457.6,23.2c9.7,0,17.6,7.9,17.6,17.6v57.1l6.7,2.3c36.9,12.9,70.7,32.4,100.4,58.1l5.4,4.6,6.2-3.6,43.4-25.1c2.7-1.6,5.7-2.4,8.8-2.4,6.3,0,12.1,3.4,15.3,8.8l78.8,136.5c4.9,8.4,2,19.2-6.4,24.1l-44,25.4-6.1,3.5,1.3,6.9c3.3,18.4,5,37.2,5,55.9s-1.9,39.6-5.6,59l-1.3,7,6.2,3.6,44.7,25.8c8.4,4.9,11.3,15.7,6.4,24.1l-78.8,136.5c-3.1,5.4-9,8.8-15.3,8.8s-6.1-.8-8.8-2.4l-45.9-26.5-6.1-3.5-5.4,4.5c-29.1,24.7-62.1,43.5-98,56l-6.7,2.3v60.6c0,9.7-7.9,17.6-17.6,17.6h-157.6c-9.7,0-17.6-7.9-17.6-17.6v-61.2l-6.7-2.4c-35.5-12.6-68.1-31.5-97-56l-5.4-4.6-6.1,3.5-46.9,27.1c-2.7,1.6-5.7,2.4-8.8,2.4-6.3,0-12.1-3.4-15.3-8.8L17.4,512.7c-4.9-8.4-2-19.2,6.4-24.1l46.2-26.7,6.1-3.5-1.3-7c-3.6-19.1-5.5-38.7-5.5-58.1s1.6-37,4.9-55l1.2-6.9-6.1-3.5-45.6-26.3c-8.4-4.9-11.3-15.7-6.4-24.1L96.2,140.9c3.1-5.4,9-8.8,15.3-8.8,3.1,0,6.1,.8,8.8,2.4l44.5,25.7,6.2,3.6,5.4-4.7c29.4-25.5,62.8-45.1,99.4-58.1l6.6-2.4V40.8c0-9.7,7.9-17.6,17.6-17.6h157.6m-77.9,531.4c89,0,161.3-72.4,161.3-161.3s-72.4-161.3-161.3-161.3-161.3,72.4-161.3,161.3,72.4,161.3,161.3,161.3M457.6,13.2h-157.6c-15.3,0-27.6,12.4-27.6,27.6v50.6c-38,13.5-72.7,34-102.6,59.9l-44.5-25.7c-4.4-2.5-9.1-3.7-13.8-3.7-9.5,0-18.8,5-23.9,13.8L8.7,272.4c-7.6,13.2-3.1,30.1,10.1,37.8l45.6,26.3c-3.3,18.4-5,37.4-5,56.8s2,40.5,5.6,60l-46.2,26.7c-13.2,7.6-17.7,24.5-10.1,37.8l78.8,136.5c5.1,8.9,14.4,13.8,23.9,13.8s9.4-1.2,13.8-3.7l46.9-27.1c29.3,24.9,63.1,44.7,100.1,57.8v54.2c0,15.3,12.4,27.6,27.6,27.6h157.6c15.3,0,27.6-12.4,27.6-27.6v-53.5c37.4-13,71.6-32.8,101.2-57.9l45.9,26.5c4.4,2.5,9.1,3.7,13.8,3.7,9.5,0,18.8-5,23.9-13.8l78.8-136.5c7.6-13.2,3.1-30.1-10.1-37.8l-44.7-25.8c3.8-19.7,5.8-40.1,5.8-60.9s-1.8-39-5.2-57.7l44-25.4c13.2-7.6,17.7-24.5,10.1-37.8l-78.8-136.5c-5.1-8.9-14.4-13.8-23.9-13.8s-9.4,1.2-13.8,3.7l-43.4,25.1c-30.2-26.1-65.2-46.6-103.6-59.9V40.8c0-15.3-12.4-27.6-27.6-27.6h0Zm-77.9,531.4c-83.6,0-151.3-67.7-151.3-151.3s67.7-151.3,151.3-151.3,151.3,67.7,151.3,151.3-67.7,151.3-151.3,151.3h0Z"/></g><g><path class="cls-1" d="M1462.6,772c-45.7,0-90.3-7.9-132.8-23.4-41.1-15-79.1-36.7-113-64.6-66.5-54.7-113.2-130.4-132.1-213.8l69.3-.8c38,138.7,164.3,235.2,308.6,235.2s294.4-118,316.7-274.4l.8-5.7h-561.1c-9.4,0-17.1-7.7-17.1-17.1v-36.8c0-9.4,7.7-17.1,17.1-17.1l629.7-.9c.9,10.5,1.3,21.2,1.3,31.9s-.8,29.7-2.5,44.3c-10.7,93.9-55.5,180.5-126.1,243.9-71.2,63.9-163.1,99.1-258.8,99.1Z"/><path class="cls-2" d="M1844.1,357.7c.6,8.9,.9,17.9,.9,26.9,0,14.6-.8,29.3-2.5,43.7-10.5,92.6-54.7,178.2-124.4,240.8-34.4,30.9-73.5,55-116.3,71.7-44.3,17.3-91.1,26.1-139.2,26.1s-89.2-7.8-131.1-23.1c-40.5-14.8-78.1-36.2-111.5-63.8-33.2-27.3-61.4-59.7-83.8-96.3-20.7-33.8-35.9-70.4-45.2-108.7l59.2-.7c39.8,138.8,167.1,235.1,312.4,235.1s299-119.8,321.7-278.7l1.6-11.4h-566.9c-6.7,0-12.1-5.4-12.1-12.1v-36.8c0-6.7,5.4-12.1,12.1-12.1l625-.9m9.2-10l-634.2,.9c-12.2,0-22.1,9.9-22.1,22.1v36.8c0,12.2,9.9,22.1,22.1,22.1h555.4c-21.8,152.7-153.1,270.1-311.8,270.1s-269.5-99.9-304.8-235.2l-79.3,.9c37.2,178,195,311.7,384.1,311.7s367.6-151.9,389.8-347.5c1.7-14.7,2.5-29.7,2.5-44.9s-.5-24.2-1.6-36.1v-.9h-.1Z"/></g><g><path class="cls-1" d="M992.7,603.8c-7.8,0-14.2-6.4-14.2-14.2v-157.4h-24.1v71.1c0,7.8-6.4,14.2-14.2,14.2h-42.5c-7.8,0-14.2-6.4-14.2-14.2v-71.1h-24.1v118.6c0,7.8-6.4,14.2-14.2,14.2h-42.5c-7.8,0-14.2-6.4-14.2-14.2v-118.3l-4.4-.5c-8.5-1.1-15-8.3-15-16.9v-36.8c0-9.4,7.7-17.1,17.1-17.1h295.6l.4-4.5c8.7-95.8,52.7-184.5,123.9-249.8C1277.6,41.2,1370.6,5,1467.9,5s89.1,7.7,131.1,22.7c40.6,14.6,78.2,35.8,111.9,63,67.5,54.5,115.3,130.7,134.6,214.8,1,4.3,1.9,8.8,2.8,13.2h-68.9c-1.3-5.3-2.6-10.6-4.1-15.7-39.4-135.8-165.8-230.6-307.3-230.6s-320,143.5-320,320,.8,26.8,2.5,39.9h-101v157.4c0,7.8-6.4,14.2-14.2,14.2h-42.5Z"/><path class="cls-2" d="M1467.9,10c44.4,0,88,7.6,129.4,22.5,40,14.4,77.2,35.3,110.5,62.1,33,26.6,61.1,58.2,83.7,94,23,36.4,39.5,76.1,49.1,118,.5,2.4,1.1,4.7,1.6,7.1h-58.9c-1-4.1-2.1-8.2-3.3-12.1-40-137.9-168.4-234.2-312.1-234.2s-325,145.8-325,325,.6,23.4,1.9,34.9h-100.4v162.4c0,5.1-4.1,9.2-9.2,9.2h-42.5c-5.1,0-9.2-4.1-9.2-9.2v-162.4h-34.1v76.1c0,5.1-4.1,9.2-9.2,9.2h-42.5c-5.1,0-9.2-4.1-9.2-9.2v-76.1h-34.1v123.6c0,5.1-4.1,9.2-9.2,9.2h-42.5c-5.1,0-9.2-4.1-9.2-9.2v-122.7l-8.8-1.1c-6-.7-10.6-5.9-10.6-12v-36.8c0-6.7,5.4-12.1,12.1-12.1h300.1l.8-9.1c8.6-94.6,52.1-182.1,122.3-246.6,70.7-64.9,162.5-100.6,258.5-100.6m0-10c-204.5,0-372.5,156.5-390.7,356.3h-291c-12.2,0-22.1,9.9-22.1,22.1v36.8c0,11.3,8.5,20.5,19.4,21.9v113.8c0,10.6,8.6,19.2,19.2,19.2h42.5c10.6,0,19.2-8.6,19.2-19.2v-113.6h14.1v66.1c0,10.6,8.6,19.2,19.2,19.2h42.5c10.6,0,19.2-8.6,19.2-19.2v-66.1h14.1v152.4c0,10.6,8.6,19.2,19.2,19.2h42.5c10.6,0,19.2-8.6,19.2-19.2v-152.4h101.7c-2.1-14.7-3.2-29.6-3.2-44.9,0-173.9,141-315,315-315s264.4,95.8,302.5,227c1.8,6.4,3.5,12.8,5,19.4h78.9c-1.1-6.5-2.4-13-3.9-19.4C1810.4,130,1654.4,0,1467.9,0h0Z"/></g></svg>