<svg id="Layer_1" data-name="Layer 1" xmlns="http://www.w3.org/2000/svg" viewBox="0 0 1912.02 462.94"><defs><style>.cls-1{font-size:408.33px;fill:#57a7dc;font-family:ProximaNova-Bold, Proxima Nova;font-weight:700;}.cls-1,.cls-2,.cls-3,.cls-4,.cls-5,.cls-7{stroke:#231f20;}.cls-1,.cls-2,.cls-3,.cls-4,.cls-5,.cls-6,.cls-7{stroke-miterlimit:10;}.cls-1,.cls-2,.cls-3,.cls-7{stroke-width:5px;}.cls-2,.cls-5{fill:none;}.cls-3{fill:#e28e54;}.cls-4{fill:#fff;}.cls-4,.cls-5,.cls-6{stroke-width:2px;}.cls-6,.cls-7{fill:#231f20;}.cls-6{stroke:#fff;}</style></defs><text class="cls-1" transform="translate(2.5 342.84)">MARM </text><text class="cls-1" transform="translate(1567.35 342.84)">T </text><path class="cls-2" d="M1562.56,636.28a143.43,143.43,0,0,1-128.08,0" transform="translate(-91.32 -308.53)"/><path class="cls-3" d="M1449,522l-4,3.58C1446.24,524.33,1447.6,523.14,1449,522Z" transform="translate(-91.32 -308.53)"/><path class="cls-3" d="M1562.1,537a80.6,80.6,0,0,0-26.41-23.34l0,0h0a77.08,77.08,0,0,0-74.81.31A79.8,79.8,0,0,0,1449,522l0,0-4,3.58-.06,0a81.52,81.52,0,0,0-9.68,11" transform="translate(-91.32 -308.53)"/><path class="cls-3" d="M1435.2,536.58a84.59,84.59,0,0,0-16.4,50.35c0,2.16.08,4.31.23,6.43a117.3,117.3,0,0,0,11.57,9.5,24.42,24.42,0,1,1,44.73,19.51,117,117,0,0,0,47-.13A24.41,24.41,0,1,1,1567,602.48a115.32,115.32,0,0,0,11-9.12c.14-2.12.23-4.27.23-6.43a84.61,84.61,0,0,0-16.1-49.95h0l0,0" transform="translate(-91.32 -308.53)"/><path class="cls-2" d="M1615.07,508.14a117,117,0,0,1-48.1,94.34,24.42,24.42,0,1,0-44.64,19.77,118,118,0,0,1-47,.13,24.42,24.42,0,1,0-44.73-19.52,116.56,116.56,0,1,1,184.47-94.72Z" transform="translate(-91.32 -308.53)"/><path class="cls-3" d="M1498.51,364.89a143.25,143.25,0,1,0,143.25,143.25A143.24,143.24,0,0,0,1498.51,364.89ZM1578,593.36a115.06,115.06,0,0,1-11,9.12,24.42,24.42,0,0,1-44.64,19.77,118,118,0,0,1-47,.13,24.42,24.42,0,0,1-44.73-19.52,116.57,116.57,0,1,1,147.4-9.5Z" transform="translate(-91.32 -308.53)"/><path class="cls-2" d="M1615.07,508.14a117,117,0,0,1-48.1,94.34,24.42,24.42,0,1,0-44.64,19.77,118,118,0,0,1-47,.13,24.42,24.42,0,1,0-44.73-19.52,116.56,116.56,0,1,1,184.47-94.72Z" transform="translate(-91.32 -308.53)"/><circle class="cls-4" cx="1386" cy="249.93" r="16.46"/><circle class="cls-5" cx="1407.2" cy="269.75" r="6.46"/><circle class="cls-4" cx="1429.64" cy="249.93" r="16.46"/><path class="cls-3" d="M1477.75,611.76a24.41,24.41,0,1,1-24.42-24.42A24.38,24.38,0,0,1,1477.75,611.76Z" transform="translate(-91.32 -308.53)"/><path class="cls-3" d="M1568.81,611.76a24.44,24.44,0,1,1-1.84-9.28A24.42,24.42,0,0,1,1568.81,611.76Z" transform="translate(-91.32 -308.53)"/><path class="cls-5" d="M1493,553.54a13.1,13.1,0,0,1,12.21,0" transform="translate(-91.32 -308.53)"/><circle class="cls-6" cx="1386" cy="249.93" r="11.99"/><circle class="cls-6" cx="1429.64" cy="249.93" r="11.99"/><path class="cls-5" d="M1477.75,584.74c2.32,2.54,5.79,5.46,9.81,5.21,4.82-.29,5.91-4.86,10.78-5.21,5.48-.39,7.52,5.16,13.26,5.21,4.13,0,7.53-2.77,9.79-5.21" transform="translate(-91.32 -308.53)"/><path class="cls-3" d="M1562.13,537l0,0a80.6,80.6,0,0,0-26.41-23.34l0,0c12.39-14.63,28.9-17.17,34.58-12.07S1575.12,523.13,1562.13,537Z" transform="translate(-91.32 -308.53)"/><path class="cls-3" d="M1460.84,513.89A79.8,79.8,0,0,0,1449,522l0,0-4,3.58-.06,0a81.52,81.52,0,0,0-9.68,11l-.81.72c-13-13.83-13.76-30.38-8.11-35.46S1448.45,499.27,1460.84,513.89Z" transform="translate(-91.32 -308.53)"/><path class="cls-7" d="M1450.74,520.46c-4.44-5.25-10.37-6.16-12.4-4.33s-1.75,7.75,2.91,12.71" transform="translate(-91.32 -308.53)"/><path class="cls-7" d="M1546.84,519.07c4.44-5.25,10.37-6.16,12.4-4.33s1.75,7.76-2.91,12.72" transform="translate(-91.32 -308.53)"/></svg>