<svg id="Layer_1" data-name="Layer 1" xmlns="http://www.w3.org/2000/svg" viewBox="0 0 1687.08 715.98"><defs><style>.cls-1{fill:#256d85;}.cls-1,.cls-2{stroke:#0a3d49;stroke-miterlimit:10;stroke-width:15px;}.cls-2{fill:none;}</style></defs><path class="cls-1" d="M811.52,626.13l-40.71-23.5a290.15,290.15,0,0,0,0-114.31l40.72-23.51a25,25,0,0,0,9.16-34.18l-66.39-115a25,25,0,0,0-34.18-9.16L679.34,330a287,287,0,0,0-98.94-57.19v-47a25,25,0,0,0-25-25H422.62a25,25,0,0,0-25,25v47A287,287,0,0,0,298.66,330l-40.77-23.54a25,25,0,0,0-34.18,9.16l-66.39,115a25,25,0,0,0,9.16,34.18l40.72,23.51a290.15,290.15,0,0,0,0,114.31l-40.71,23.5a25,25,0,0,0-9.16,34.18l66.39,115a25,25,0,0,0,34.18,9.15l40.74-23.52a287.09,287.09,0,0,0,99,57.22v47a25,25,0,0,0,25,25H555.38a25,25,0,0,0,25-25v-47a287.09,287.09,0,0,0,99-57.22l40.74,23.52a25,25,0,0,0,34.18-9.15l66.39-115A25,25,0,0,0,811.52,626.13ZM624.71,572.66a139.57,139.57,0,1,1,2.67-27.17A138.21,138.21,0,0,1,624.71,572.66Z" transform="translate(-146.46 -182.01)"/><path class="cls-2" d="M627.38,545.49a138.08,138.08,0,1,1-2.68-27.22A138.93,138.93,0,0,1,627.38,545.49Z" transform="translate(-146.46 -182.01)"/><path class="cls-1" d="M1822.79,587.87a354.09,354.09,0,0,0,.87-88.85H1238.11l.63,88.85h514.5c-22.73,132.8-138.41,233.87-277.69,233.87-130.59,0-240.43-88.85-272.37-209.39h-70.64c33.34,158.86,174.24,278.14,343,278.14,177.33,0,323.9-131.69,347.24-302.62" transform="translate(-146.46 -182.01)"/><path class="cls-1" d="M857.68,503a44.22,44.22,0,0,1,18.38-4h51.07" transform="translate(-146.46 -182.01)"/><line class="cls-1" x1="870.03" y1="317.01" x2="800.58" y2="317.01"/><path class="cls-1" d="M1332.05,220.14a349.24,349.24,0,0,1,143.5-30.63c169.27,0,310.51,120,343.29,279.56h-70.56c-31.44-121.27-141.63-210.81-272.73-210.81a282.26,282.26,0,0,0-72.68,9.46C1295.33,296.36,1213.08,387,1196.76,499a285,285,0,0,0,1.09,88.85h-92V727.78a13.27,13.27,0,0,1-13.28,13.28h-42.89a13.28,13.28,0,0,1-13.28-13.28V587.87h-19.91v61.79a13.27,13.27,0,0,1-13.28,13.27H960.32A13.28,13.28,0,0,1,947,649.66V587.87H927.13V696.13a13.28,13.28,0,0,1-13.28,13.27H871a13.27,13.27,0,0,1-13.28-13.27V583.9A44.43,44.43,0,0,1,876.06,499h251.38C1142,374.34,1221.91,269.63,1332.05,220.14Z" transform="translate(-146.46 -182.01)"/><line class="cls-1" x1="959.39" y1="317.01" x2="889.94" y2="317.01"/></svg>